<svg viewBox="0 0 1280 1280" fill="none" xmlns="http://www.w3.org/2000/svg" style="background:linear-gradient(180deg,transparent 66.64%,#000 100%),linear-gradient(206.9deg,#161618 6.92%,#080809 91.7%)">
  <path d="M640 1144a504 504 0 100-1008 504 504 0 000 1008z" stroke="#3D3D3D" stroke-width="8" stroke-dasharray="2 40"/>
  <path d="M344 936l592-592" stroke="url(#paint2_linear)" stroke-width="2"/>
  <g filter="url(#filter0_i)">
    <path d="M860 767a254 254 0 10-440-254 254 254 0 00440 254z" fill="url(#paint3_linear)"/>
  </g>
  <path d="M724.7 650.2h-.2l-7.3-46.6a3.2 3.2 0 002.1-3 3.3 3.3 0 00-5.4-2.6l-32.7-32.8c.4-.5.6-1.2.6-1.8a3.3 3.3 0 00-6.4-.9l-46.7-7.4a3.3 3.3 0 10-6.1 1.7l-41.2 21a3.3 3.3 0 00-5.6 2.2c0 1 .5 2 1.4 2.7l-20.7 40.7-1.2-.3a3.3 3.3 0 000 6.6h.2l7 44.5a3.3 3.3 0 00.6 6.5c.5 0 1-.1 1.5-.4l33.7 33.8c-.3.5-.5 1.1-.5 1.7a3.3 3.3 0 006.3 1.4l46.6 7.4v.1a3.3 3.3 0 106.2-1.4l41.8-21.3a3.3 3.3 0 005.7-2.2c0-1.2-.6-2.2-1.5-2.8l20.6-40.5 1.2.3a3.3 3.3 0 000-6.6zM698 700.3l-12 1.9a3 3 0 00-.4-1l12.5-11.6c.5.5 1.1.8 1.9.8l.6 6.2a3.2 3.2 0 00-2.6 3.2v.5zm-57.2 19.1l.4-.5 6.5 3.1-6.9-2.6zm-83-90.8l6.2 4.5V661c-.5.2-1 .4-1.4.8a3 3 0 000 4.2c.4.4.9.7 1.5.8l-.7 7.5h-.1l-7.1-44.6c.6-.2 1.2-.5 1.6-1zm24.6-49l7.2-1.2c0 .3.2.6.5 1l-10.4 9.5c-.5-.5-1.2-.7-1.9-.7a2.8 2.8 0 00-.5 5.6l-.3 4.6-10.4 14.3a3 3 0 00-3.8 4.5l-5.5 6.6-.2-.1 20.8-40.7c.4.2.8.3 1.3.3 1.8 0 3.2-1.5 3.2-3.3v-.3zm-10.7 57l-1 .8-6.1-4.6v-14.7l1-.1 6 18.7zm23.6-59.6l3-1c.3.8 1 1.4 1.7 1.7l.1.4-4.7-.5v-.6zm16.3 2.2l-8-3.7.1-.5 15 3.5c-.3.3-.5.8-.6 1.3l-6.5-.6zm83.2 6.6l-3.5 2.4-6.7-9.2.5-.7 9.7 6.3-.1.6.1.6zm-90.9 94.4l-16.1.1a2.8 2.8 0 00-2.8-2.6h-.4l-1-20.3c.5 0 1-.1 1.3-.4l19.5 21c-.4.4-.5 1-.5 1.5v.7zM648 568.8l4.5-.9 19.4 6.3-7 5c-.3-.4-.8-.5-1.4-.5h-.3a2.8 2.8 0 00-2.3-1.1c-.3 0-.7 0-1 .2l-12.1-8 .2-.9v-.1zm56.4 31.7l-3.3 1.2-2-2.9 4.7-.2v.3c0 .6.2 1.2.6 1.6zm3.6 67.5l-35.3 13c-.3-.6-.9-1-1.6-1.2l1.3-24.6c.7 0 1.4-.5 1.7-1.2l34 13-.2.5.1.5zm-76.6-77.7l-20.6 10.4a2.2 2.2 0 00-2.4-1l-7.5-21 10.6 1 19.7 9.1v.4c0 .4 0 .8.2 1.1zM613.1 580l4.8.5c0 .9.4 1.7 1 2.2l-5.8-2.7zm10.3-.4l9.7 2.3a2 2 0 001.4 2l-.7 3.3h-.5c-.9 0-1.7.4-2 1.2l-11.1-5.1h.5c1.6 0 2.8-1.3 2.8-2.8l-.1-.9zm84.7 37.3l-25.5-7.3v-.4-.4l7.3-2.6c.5.3 1 .4 1.4.4 1.1 0 2.1-.7 2.6-1.8l6.9-2.4 8.3 11.5-.2.2a3 3 0 00-.8 2.8zm-120.3 25c0 .3.2.5.5.6L584 653h-.6-.2l-2.9-12 7.4.8zm1-31.5l24.2 18a2.2 2.2 0 00-.1 1.8l-22.7 10.4c-.2-.3-.6-.6-1-.6l-1.7-29c.5 0 1-.3 1.2-.6zm46.3-26.5a2 2 0 001.8-1.5l17.1.2v.2l-18.6 6c-.2-.7-.6-1.2-1.2-1.5l.9-3.4zm-21.2 65.5l-13.3 5.8c-.4-.6-1.1-1-1.9-1a2 2 0 00-1 .2l-7.8-12 .2-.3 23.8 6.4v.9zm-23.5-8.2l22.7-10.5c.4.6 1 1 1.8 1l.8 15c-.7.2-1.3.6-1.6 1.2l-23.7-6.3v-.3-.1zm81.6-41l-38.4 11.7-.6-.8 22-26.8c.8.5 1.8.4 2.6-.2l14.9 14.4c-.4.4-.6.9-.6 1.4l.1.3zm-55 30.4l12.9 4.7 18.5 6.8-.2.6-30 5.4c-.4-.8-1.1-1.3-2-1.4l-.8-15c.7-.1 1.2-.5 1.5-1.1zm43.5-3l-9.2 13.2-.9-.2-.8.2-16.8-26 .7-.7 26.2 11.1.2.1-.1.6c0 .6.3 1.2.7 1.7zm-28.2-12.6l16.8 26-.5.6-31.4-11.6v-.5c0-.4-.1-1-.4-1.3l13.3-13.7c.6.5 1.4.7 2.2.5zm38 36.9l-4-2-13.7-6.6v-.4c0-.7-.3-1.4-.8-1.8l9.2-13.2c.4.2.9.3 1.3.2L671 651l-.6.7zm-37.8-41c-.2-.2-.5-.2-.8-.3l1.8-19.1c1.1-.2 2-1 2-2.2l18.7-6 .4.6-22 27zm17 34l1 .2c.8 0 1.5-.5 1.9-1.3l17.6 8.6-.1.7c0 .3 0 .6.2.8l-18.3 10.5-18.4 10.6-.5-.5 16.6-29.6zm22.6 6h-.5l-8.6-23c.5-.3.9-.7 1-1.2l28.3 6v.1c0 .4.1.8.4 1.2l-19.2 17.4c-.4-.3-.9-.5-1.4-.5zm-9.4-27c-1-.4-2 0-2.6 1l-26.4-11.3.1-.7v-.5l38.3-11.6c.2.4.5.8 1 1l-10.4 22zm-52-20.7l18.8 9.1a2.2 2.2 0 00.2 1.8l-13.4 13.7c-.4-.3-.8-.4-1.3-.4h-.2l-5.2-23.3c.4-.2.8-.5 1-1zm-26.1 50.1l4.2-10.6h.6l7.5 11.4.4.6c-.4.3-.7.7-.8 1.2l-10.8-.8c0-.7-.4-1.4-1.1-1.8zm33.7-4.4v-.2l30-5.4c0 .5.3 1 .7 1.3l-16.6 29.7c-.5-.2-1-.2-1.6 0l-13.3-23.6c.5-.5.8-1.1.8-1.8zm74.2-16.8l-28.3-6v-.2c0-.5-.1-.9-.4-1.3l15.2-13.7c.6.5 1.5.7 2.3.3l11.9 19.8-.7 1zM633 591.4l-1.8 19.2c-.7.1-1.2.5-1.5 1.1l-18.8-9 .1-.8v-.7l20.7-10.4c.3.3.8.5 1.3.6zm-57.7 49.1l4.5.5 3 12.1-.3.1-8.3-11.5a3 3 0 001-1.2zm103-31.4c0 .5 0 1 .4 1.3l-15.3 13.8-.2-.2 10.4-22a2 2 0 001.7-.3l3.7 5.8c-.5.4-.8 1-.8 1.6zm-5.4-11.1l-15-14.4c.4-.3.5-.8.5-1.3v-.2h.1a2.8 2.8 0 003.8.7c.7.4 1.5.4 2.1 0L673 598l-.1.1zM658 580.4c0 .3 0 .6.2.8a2.2 2.2 0 00-3.1-.8l-7.8-10h.1l11.8 7.7c-.7.5-1.2 1.4-1.2 2.3zm-11.1-9.6l7.7 10c-.3.3-.5.7-.6 1.2l-17-.3c0-.3-.2-.7-.4-1l8-10c.7.5 1.6.5 2.3.1zm-69.4 50c0-.6-.2-1-.5-1.5l8.8-8.8c.3.3.7.5 1.2.5l1.6 28.9h-.3l-11.6-17.4c.5-.4.8-1 .8-1.8zm10.1 20.4l-7.3-.7-4.3-17.6.2-.1 11.7 17.6c-.2.2-.3.5-.3.8zm-12.1-1.3v-.6c0-1.3-.8-2.5-2-2.8l2-13.5 4.2 17.4-4.2-.5zm10.2 15.7l10.8.8c0 1.2 1 2 2.2 2h.4l6 19c-.2 0-.3.2-.4.3l-19.5-21.1c.3-.3.4-.6.5-1zm15.2.7v-.7l13.2-5.8c.2.5.6.8 1 1l-8.7 26.5h-.8l-6-19c.8-.4 1.3-1.2 1.3-2zm14.7-5.3h.5c.3 0 .6 0 1-.2l13.2 23.6c-.5.5-.9 1.1-.9 1.8l-21.3 2.7c-.2-.6-.6-1.1-1.2-1.4l8.7-26.5zm18.2 25.2l-.1-.9 36.7-21c.3.5.8.8 1.4.9l-1.3 24.6c-.9 0-1.7.7-2 1.6l-34.7-5.2zm60.3-72.1v-.5a2.8 2.8 0 10-4.7 2.1l-7 2.4a2.2 2.2 0 00-2-1.2l-1 .2-3.7-5.7c.4-.4.7-1 .7-1.5l21.8-1 2.2 3-6.3 2.2zm-57.9-23.8a2 2 0 00-1.2-.4 2 2 0 00-1.8 1.3l-9-2 19.9-8.8-7.9 10zm-27.4 23.8h.3l5.1 23.2c-.3.2-.6.3-.8.6L589 610l.3-1.1v-.4l17.4-5.6c.4.8 1.2 1.3 2 1.3zm33.7 91.6c-.3 0-.5 0-.7.2l-9-17.8c.5-.3.8-.8 1-1.3l34.7 5.2c0 .3 0 .6.2.8l-24.4 13.8c-.5-.5-1.1-.9-1.8-.9zm51.2-65l-11.9-19.8c.3-.2.5-.5.7-.9l26 7.5c0 .3.2.5.4.7l.9.6.2.6-14 11.7c-.4-.4-.9-.6-1.5-.6-.3 0-.5 0-.8.2zm-17.3-31.4l-.2-.5 14.8-9.9 6.9 9.4-21.5 1zm-28.6-31a2.2 2.2 0 00-2-1.6c-.9 0-1.6.4-2 1.1l-4.2-3.1.3-.8 11.4 3.7-3.5.6zm-41.1 34l-17.6 5.6a2.2 2.2 0 00-2-1.3c-.3 0-.5 0-.8.2l-6.7-11.3 2.6-3.5 24.5 9.4a2.2 2.2 0 000 .9zm-21.5 5.5l-.1.2a2 2 0 00-.2.8c0 .5.2 1 .5 1.3l-8.8 8.9-.7-.4 1.5-20 1.9-2.6 6.5 11c-.3.2-.5.5-.6.8zm-9.9 10.7a2 2 0 00-1.2.4l-.2.2-.4.4-6-3.2a3 3 0 00-.6-3.3l9.9-13.5-1.5 19zm-8.6 43.3l14.9-5.6c.3.6.8 1 1.4 1.1l1 20.6a2.8 2.8 0 00-.4 5.2l-1.3 4.3h-.9l-15.3-21 .6-.5a3 3 0 000-4.1zm64.7 16.6l1-.1 8.8 17.8a2.2 2.2 0 00-.6 3l-15 12.5c-.3-.3-.6-.4-.9-.5l6.7-32.7zm41.5 3.8v-.2l-.1-.5 34.8-12.7-12.8 17.5-9.5-1.8-12.4-2.3zm21.6 4.6l-10 13.6a3 3 0 00-2.7-.1l-9.5-16.8.5-.8 21.7 4zm13.6-20.3l-33.8-13v-.5c0-.4-.1-.9-.4-1.3l19.2-17.3c.6.5 1.4.7 2.1.4l12.5 27.9.7 1.6c0 .4.2.7.4 1l.1.3c-.3.2-.6.5-.8.9zm1.5-53l-8.3-11.4 3.4-1.1a2.7 2.7 0 002.2.6l3.4 11.6c-.3 0-.5.2-.7.3zm-34.7-15.8c-.4-.1-1-.2-1.4 0l-8.6-15.2c.5-.4.7-1 .7-1.6 0-.5-.1-1-.4-1.3l7.2-5.2 7 2.3a3 3 0 001.7 3l-6.2 18zm-79.7-19.5l5 .4L608 600c-.5.2-.8.6-1 1l-24.4-9.3 8.3-11.5a3 3 0 003.6-.5c.4-.3.7-.9.8-1.4zm-17.7 19.3l.3-3.7h.2l1 1.7-1.5 2zm1-3.8c1.1-.3 1.9-1.2 2-2.3l1.1.4-2.3 3.2-.7-1.3zm-11.2 23l6 3.3-.1.1v.6l.1.9.1.2c.3.6.9 1 1.4 1l-2 13.6-.6.1-6.1-18.7a2.8 2.8 0 001.2-1zm4.8 25.3a2.8 2.8 0 001.5 0l8.4 11.6-.5.7v.2c-.2.3-.2.5-.2.7v.5l-15 5.7-.6-.3 6.4-19zm30.4 63l12.9 5-13.7-4.4c.3-.1.6-.3.8-.6zm.5-1.4c0-.8-.6-1.6-1.3-2l4-20h1l16 29.8a2 2 0 00-.6.7l-19.3-7.5.2-1zm5.1-24.1l21.4-2.7c.2.7.7 1.3 1.4 1.5l-6.7 32.7a2 2 0 00-1 .1l-16-29.8c.6-.4 1-1.1 1-1.8zm80.4-99.6l-3.3-2.2v-.3l3.3 2.5zm-12.7 18.4l-.4-.4 6.2-18a3 3 0 002.5-.5l6.6 9.1-14.9 9.8zm3.7-22.2l-6.5-2 3-2.2c.5.2 1 .2 1.5 0l2.7 3.1c-.3.3-.6.7-.7 1.1zm-14.5-8c1 0 1.9-.6 2.4-1.4l8 3.7v.3c0 .3.1.5.3.8l-3.3 2.3-18.9-6.1 8.8-1.7c.3 1.2 1.4 2 2.7 2zm-64.4 10v-.3h.2c1.2 0 2.2-.6 2.6-1.7l6.4 3-9.2-1zM582 591.4l-1.5-.6c0-.5-.2-1-.5-1.4l10.3-9.6-8.3 11.6zm53.6 126.1l-4.2-1.6 4.2 1.4v.2zm5.4-18c.4.5.9.7 1.5.7 1 0 1.8-.7 2-1.6l35.6 4.6v.4l-18.3 5.9-35.6 3.2-.3-.7 15-12.4zm3.7-1.4v-.2c0-.3 0-.5-.2-.8l24.4-13.8a2.2 2.2 0 003 .6l9.5 16.6-.4.4c-.4.4-.7 1-.8 1.7l-35.5-4.5zm52.9-9L685 700.8l10-13.8 2 .3-.1.3c0 .6.2 1.2.6 1.7zm10.8-26.1l-12.7-28.4.8-.8 7.6 3.1a2.8 2.8 0 002.8 2.5c.7 0 1.3-.2 1.8-.6l2.3 1v21a3 3 0 00-1.8.8c-.4.4-.7.9-.8 1.4zm1.3-26.4c0-1.6-1.2-2.8-2.8-2.8a2.8 2.8 0 00-2.8 2.5l-7.4-3v-.6c0-.4 0-.8-.3-1.2l14-11.7.5.4v19l-1.8-.8c.4-.6.6-1.2.6-1.8zM704 598l-5.4.3-7-9.7 3.5-2.3c.3.3.7.4 1.1.4l.7-.1 7.8 10.3a3 3 0 00-.7 1.1zm-119.6 93.4l.3-1.2c0-1.1-.7-2.1-1.7-2.6l1.2-4.4.8.2c1.4 0 2.7-1.2 2.8-2.6l16.4-.2c.2.5.6.8 1.1 1l-4 19.9h-.4c-1 0-1.9.6-2.1 1.6l-.1.3V704.3l.1.2.1.2-3.3-1a3 3 0 00-4.5-3l-6.7-9.3zm127.3-51.5l2 .8c-.3.4-.4.8-.4 1.3 0 1 .7 2 1.7 2.6l-3.4 15.1v-19.8zm0-.5v-19h.4l3.3 18.9c-.6.1-1.1.5-1.5 1l-2.3-1zm4.2-.3l-3.3-18.8c1-.3 1.6-1.1 1.6-2.1v-.4l-.5-.5a3 3 0 00-.5-3.3c-.3-.3-.5-.5-.9-.6l3.1-9.7h.4v35.4zm-35.2-64.5l-1.8-2 2.4 1.7-.6.3zm-41.5-9.4h.1l4.4 3.2v.5c0 .4 0 .7.2 1l-20.5 9h-.2a2.8 2.8 0 00-2.4-1.4c-.5 0-1 .2-1.5.5l-15.7-3.6v-.1l30.7-10 .7 1a3 3 0 004.2 0zm-74.6 68.3l5.8 4.3c-.3.5-.4 1-.4 1.5 0 1.1.6 2.1 1.6 2.6l-6.3 19h-.7v-27.4zm72 81.8a3 3 0 00-.8 1.4l-9.5-3.1v-.3l33.3-3-18.2 6a3 3 0 00-2.7-1.9 3 3 0 00-2.1.9zm28-6l15.9-5.2.2.5-3 2.2c-.6-.6-1.4-.9-2.2-.9a2.8 2.8 0 00-2.8 2.7l-8.2.7zm32.6-22.6l-1.6-.3 12.8-17.6.5.5-8.1 15.5-.9-.1c-1.2 0-2.3.8-2.7 2zm12.8-17h.2c.5 0 .9-.1 1.3-.4l.9-2.2-.2-.6c.5-.1 1-.4 1.3-.7.9-1 1.1-2.2.5-3.4l8.7-6.5.4.3-20.6 40.5h-.1l7.6-27zm11.6-16.2c0 .7.2 1.4.7 2l-8.6 6.4-.2-.3a3 3 0 00-1.5-.8l3.5-16h.7c.5 0 1-.1 1.4-.4l5 6.7c-.6.6-1 1.5-1 2.4zm-9.8-40.3a3 3 0 00-.7 0h-.2l-3.3-11.8c1-.4 1.7-1.4 1.7-2.5a2.7 2.7 0 00-4.2-2.3l-7.3-9.8 15.6 12c-.4.5-.5 1.1-.5 1.7 0 1.3.8 2.5 2 3l-3.1 9.7zm1-15.6l-15.2-11.7.2-.7c0-1-.8-1.7-1.8-1.5l-15-18 31.8 31.9zm-17.6-13.5l-9.9-7.5a3 3 0 00-.8-1.7 3 3 0 00-2.5-.8l-3.8-2.8v-.6c0-.6-.3-1-.8-1.3l.6-2.8h.7c.6 0 1.3-.2 1.8-.5l15 17.8c-.2 0-.3 0-.3.2zm-18.3-14.8c-.3 0-.7.1-.9.3l-1-.8.8 1-8-3.7v-.9-.5l7.7-.7c.2 1 .9 2 2 2.4l-.6 2.9zm-1.5-5.9l-7.7.7a2.8 2.8 0 00-5.4 1.1v.2l-9.7 2-12.5-4.2a3 3 0 00-.9-2.1 3 3 0 00-4.2 0l-6.4-4.6.2-.8 46.6 7.4v.3zm-41.2.3l-30.8 10a2.8 2.8 0 00-5.3 1.7l-3 1-.6-.9a3 3 0 00-4.2 0 3 3 0 00-.8 2.3l-7.2 1.3a3 3 0 00-.4-.8l41-21a3.3 3.3 0 005.4-.3l6.3 4.6c-.4.6-.5 1.4-.4 2.1zm-71 53.9l.8.3v14.5l-5.8-4.3a3.2 3.2 0 00-.5-4l5.6-6.5zm1.5 49.2c.3 0 .7 0 1-.2l15.2 21c-.6.1-1 .5-1.4 1L566 679c.3-.5.4-1 .4-1.6 0-1.5-1-2.8-2.6-3.2l.8-7.4zm1.1 12.7l13.4 9.6-.2 1a2.8 2.8 0 005 1.8l6.7 9.2a3 3 0 00-1 2.1 3 3 0 004.4 2.7l4.9 7.6-.2.2L565 680l.6-.5zm29 25.8l.7-1 4.4 1.3.6.2 21.5 7V713.4l-17.6 2.1a3.3 3.3 0 00-5-2.4l-4.9-7.5.3-.3zm9.6 10.8L622 714c.2.6.7 1 1.2 1.3h.3l.6.2c.8 0 1.5-.4 1.8-1l10 3.8c0 .5.3 1 .6 1.3a3 3 0 003.8.4l10.6 4v.1l-46.6-7.3.1-.6zm37.1.7l20.7-6.7 10.6-1c0 .4.1.7.3 1l-16.8 12.3c-.6-.6-1.4-1-2.2-1-1.2 0-2.3.7-2.8 1.7l-9.9-4.7c.2-.5.3-1 .1-1.6zm32-6.2c.5.6 1.2 1 2 1a2.8 2.8 0 002.5-4.3l3-2.3a3 3 0 004.3 0 3 3 0 00.8-2.3l12-1.8.3.6-41.7 21.3 16.7-12.2zm29.3-23.1c0-1-.6-2-1.5-2.5l8-15.3-7.5 26.9h-.6l-.7-6.3a2.9 2.9 0 002.3-2.8zm16.2-45.5c0-1.1-.6-2-1.6-2.6l.1-.2v-.1-.2-.8l-.6 1.1h-.4v-35.4h.2l7.4 46.5c-.3 0-.7.2-1 .4l-5-6.7c.5-.5.9-1.3.9-2z" fill="#3D3D3D"/>
  <path fill-rule="evenodd" clip-rule="evenodd" d="M639 344c0 11.7 0 12 1 12s1-.3 1-12 0-12-1-12-1 .3-1 12zm-27-9c0 1.1.2 2 .5 2s.5 2.2.5 5.5.2 5.5.5 5.5.5 1.8.5 4.5c0 4.2 0 4.5 1 4.5s1-.3 1-4c0-2.3-.2-4-.5-4s-.5-2.3-.5-6-.2-6-.5-6-.5-.9-.5-2c0-1.7-.2-2-1-2s-1 .3-1 2zm54 .5c0 1.4-.2 2.5-.5 2.5s-.5 2.3-.5 6-.2 6-.5 6-.5 1.5-.5 3.5c0 3.2.1 3.5 1 3.5 1 0 1-.3 1-4.5 0-2.7.2-4.5.5-4.5s.5-2.2.5-5.5.2-5.5.5-5.5.5-.9.5-2c0-1.7-.2-2-1-2-.9 0-1 .3-1 2.5zm-80 4c0 1.4.2 2.5.5 2.5s.5 1.3.5 3 .2 3 .5 3 .5 1.3.5 3 .2 3 .5 3 .5 1 .5 2.3c0 2 .8 3.7 1.7 3.7.2 0 .3-1.4.3-3 0-1.7-.2-3-.5-3s-.5-1.3-.5-3-.2-3-.5-3-.5-1.3-.5-3-.2-3-.5-3-.5-1.1-.5-2.5c0-2.2-.1-2.5-1-2.5s-1 .3-1 2.5zm106 0c0 1.4-.2 2.5-.5 2.5s-.5 1.3-.5 3-.2 3-.5 3-.5 1.3-.5 3-.2 3-.5 3-.5 1.3-.5 3c0 1.6.1 3 .3 3 1 0 1.7-1.7 1.7-3.7 0-1.3.2-2.3.5-2.3s.5-1.3.5-3 .2-3 .5-3 .5-1.3.5-3 .2-3 .5-3 .5-1.1.5-2.5c0-2.2-.1-2.5-1-2.5s-1 .3-1 2.5zm-132 5c0 1.4.2 2.5.5 2.5s.5.9.5 2 .2 2 .5 2 .5.9.5 2 .2 2 .5 2 .5.7.5 1.5.2 1.5.5 1.5.5.9.5 2 .2 2 .5 2 .5.6.5 1.3c0 1.1 1 2.7 1.7 2.7.2 0 .3-.9.3-2s-.2-2-.5-2-.5-.9-.5-2-.2-2-.5-2-.5-.7-.5-1.5-.2-1.5-.5-1.5-.5-.9-.5-2-.2-2-.5-2-.5-.9-.5-2-.2-2-.5-2-.5-.8-.5-1.8c0-1.6-.9-3.2-1.7-3.2-.2 0-.3 1.1-.3 2.5zm158.6-1.8c-.3.4-.6 1.6-.6 2.5 0 1-.2 1.8-.5 1.8s-.5.9-.5 2-.2 2-.5 2-.5.7-.5 1.5-.2 1.5-.5 1.5-.5.9-.5 2-.2 2-.5 2-.5.9-.5 2-.2 2-.5 2-.5.9-.5 2 .1 2 .3 2c.7 0 1.7-1.6 1.7-2.7 0-.7.2-1.3.5-1.3s.5-.9.5-2 .2-2 .5-2 .5-.7.5-1.5.2-1.5.5-1.5.5-.9.5-2 .2-2 .5-2 .5-.9.5-2 .2-2 .5-2 .5-.7.5-1.5.3-1.5.6-1.6c.5-.2.4-.5-.2-1-1-1-1-1-1.8-.2zM534 351.5c0 .8.2 1.5.5 1.5s.5.7.5 1.5.2 1.5.5 1.5.5.4.5 1 .2 1 .5 1 .5.7.5 1.5.2 1.5.5 1.5.5.7.5 1.5.2 1.5.5 1.5.5.7.5 1.5.2 1.5.5 1.5.5.4.5 1 .2 1 .5 1 .5.6.5 1.3c0 1.1 1 2.7 1.7 2.7.2 0 .3-.9.3-2s-.2-2-.5-2-.5-.4-.5-1-.2-1-.5-1-.5-.7-.5-1.5-.2-1.5-.5-1.5-.5-.7-.5-1.5-.2-1.5-.5-1.5-.5-.7-.5-1.5-.2-1.5-.5-1.5-.5-.4-.5-1-.2-1-.5-1-.5-.7-.5-1.5-.2-1.5-.5-1.5-.5-.7-.5-1.5c0-1.2-.2-1.5-1-1.5s-1 .3-1 1.5zm210 0c0 .8-.2 1.5-.5 1.5s-.5.4-.5 1-.2 1-.5 1-.5.7-.5 1.5-.2 1.5-.5 1.5-.5.7-.5 1.5-.2 1.5-.5 1.5-.5.7-.5 1.5-.2 1.5-.5 1.5-.5.7-.5 1.5-.2 1.5-.5 1.5-.5.4-.5 1-.2 1-.5 1-.5.9-.5 2 .1 2 .3 2c.7 0 1.7-1.6 1.7-2.7 0-.7.2-1.3.5-1.3s.5-.4.5-1 .2-1 .5-1 .5-.7.5-1.5.2-1.5.5-1.5.5-.7.5-1.5.2-1.5.5-1.5.5-.4.5-1 .2-1 .5-1 .5-.7.5-1.5.2-1.5.5-1.5.5-.7.5-1.5.2-1.5.5-1.5c.7 0 .6-1.5-.2-2.3-1-1-1.3-.9-1.3.8zm25 9.5c0 .6-.2 1-.5 1s-.5.4-.5 1-.2 1-.5 1-.5.4-.5 1-.2 1-.5 1-.5.4-.5 1-.2 1-.5 1-.5.7-.5 1.5-.2 1.5-.5 1.5-.5.4-.5 1-.2 1-.5 1-.5.4-.5 1-.2 1-.5 1-.5.4-.5 1-.2 1-.5 1-.5.4-.5 1-.2 1-.5 1-.5.4-.5 1c0 .5-.3 1-.6 1.1-.5.2-.4.5.2 1.1.8.8 1 .8 1.6.1.5-.4.8-1 .8-1.5 0-.4.2-.8.5-.8s.5-.7.5-1.5.2-1.5.5-1.5.5-.4.5-1 .2-1 .5-1 .5-.4.5-1 .2-1 .5-1 .5-.4.5-1 .2-1 .5-1 .5-.4.5-1 .2-1 .5-1 .5-.4.5-1 .2-1 .5-1 .5-.4.5-1 .2-1 .5-1 .5-.4.5-1 .2-1 .5-1c.7 0 .6-1.5-.2-2.3-1-1-1.3-.9-1.3.3zm-260 .5c0 .3.2.5.5.5s.5.7.5 1.5.2 1.5.5 1.5.5.4.5 1 .2 1 .5 1 .5.4.5 1 .2 1 .5 1 .5.4.5 1 .2 1 .5 1 .5.4.5 1 .2 1 .5 1 .5.4.5 1 .2 1 .5 1 .5.4.5 1 .2 1 .5 1 .5.4.5 1 .2 1 .5 1 .5.6.5 1.3c0 1.1 1 2.7 1.7 2.7.2 0 .3-.9.3-2s-.2-2-.5-2-.5-.4-.5-1-.2-1-.5-1-.5-.4-.5-1-.2-1-.5-1-.5-.4-.5-1-.2-1-.5-1-.5-.4-.5-1-.2-1-.5-1-.5-.4-.5-1-.2-1-.5-1-.5-.4-.5-1-.2-1-.5-1-.5-.7-.5-1.5-.2-1.5-.5-1.5-.5-.4-.5-.8-.3-1-.7-1.5c-.8-.8-2.3-1-2.3-.2zm-23 13c0 .8.2 1.5.5 1.5s.5.4.5 1 .2 1 .5 1 .5.4.5.9.4 1.2 1 1.6c.6.4 1 1.1 1 1.6s.2.9.5.9.5.4.5.9.4 1.2 1 1.6c.6.4 1 1.1 1 1.6s.2.9.5.9.5.4.5 1 .2 1 .5 1 .5.3.5.8c0 .4.6 1.3 1.2 2 1.3 1.2 2.8 1.6 2.8.7 0-.3-.2-.5-.5-.5s-.5-.4-.5-.9-.4-1.2-1-1.6c-.6-.4-1-1.1-1-1.6s-.2-.9-.5-.9-.5-.4-.5-1-.2-1-.5-1-.5-.4-.5-.9-.4-1.2-1-1.6c-.6-.4-1-1.1-1-1.6s-.2-.9-.5-.9-.5-.4-.5-1-.2-1-.5-1-.5-.4-.5-.9-.4-1.2-1-1.6c-.6-.4-1-1-1-1.4 0-.7-1.2-2.1-1.7-2.1-.2 0-.3.7-.3 1.5zm306.1-.2c-.6.6-1.1 1.5-1.1 2 0 .4-.2.7-.5.7s-.5.4-.5 1-.2 1-.5 1-.5.4-.5.9-.5 1.2-1 1.6c-.5.4-1 1.1-1 1.6s-.2.9-.5.9-.5.4-.5 1-.2 1-.5 1-.5.4-.5.9-.5 1.2-1 1.6c-.5.4-1 1.1-1 1.6s-.2.9-.5.9-.5.7-.5 1.5.1 1.5.3 1.5c.6 0 2.7-2.5 2.7-3.2 0-.5.2-.8.5-.8s.5-.4.5-1 .2-1 .5-1 .5-.4.5-.9.5-1.2 1-1.6c.5-.4 1-1.1 1-1.6s.2-.9.5-.9.5-.4.5-.9.5-1.2 1-1.6c.5-.4 1-1.1 1-1.6s.2-.9.5-.9.5-.4.5-1 .2-1 .5-1 .5-.4.5-1 .2-1 .5-1 .5-.2.5-.5c0-1-1.7-.5-2.9.8zm22.9 13.6c0 .5-.5 1.2-1 1.6-.5.4-1 1-1 1.5 0 .4-.5 1.1-1 1.5-.5.4-1 1-1 1.5 0 .4-.5 1.1-1 1.5-.5.4-1 1-1 1.4 0 .4-.7 1.3-1.5 2.1s-1.5 1.7-1.5 2c0 .5-.5 1.1-1 1.5-.5.4-1 1-1 1.4 0 .4-.5 1.1-1 1.6-1 .9-1 1-.3 1.8.7.7.9.7 1.5 0 .5-.4.8-1 .8-1.4 0-.4.5-1 1-1.4.5-.4 1-1 1-1.4 0-.4.7-1.3 1.5-2.1s1.5-1.7 1.5-2c0-.5.5-1.1 1-1.5.5-.4 1-1 1-1.5 0-.4.5-1.1 1-1.5.5-.4 1-1 1-1.4 0-.4.7-1.3 1.5-2.1 1.8-1.7 2-4 .5-4-.6 0-1 .3-1 .9zm-352 1c0 .5.4 1.2 1 1.6.6.4 1 1 1 1.4 0 .4.7 1.3 1.5 2.1s1.5 1.7 1.5 2c0 .5.4 1.1 1 1.5.6.4 1 1 1 1.4 0 .4.7 1.3 1.5 2.1s1.5 1.7 1.5 2c0 .5.4 1.1 1 1.5.6.4 1 1 1 1.4 0 .4.3 1 .8 1.4.6.7.8.7 1.5 0 .7-.8.7-1-.2-1.8-.6-.5-1.1-1.1-1.1-1.5 0-.3-.7-1.2-1.5-2s-1.5-1.7-1.5-2c0-.5-.4-1.1-1-1.5-.6-.4-1-1-1-1.5 0-.4-.4-1.1-1-1.5-.6-.4-1-1-1-1.5 0-.4-.4-1.1-1-1.5-.6-.4-1-1-1-1.4 0-.9-2.3-3.1-3.2-3.1-.5 0-.8.4-.8.9zm-21 16c0 .5.4 1.2 1 1.6.6.4 1 1 1 1.4 0 .4 1.4 2 3 3.6s3 3.2 3 3.5c0 .3 1.1 1.7 2.5 3s2.5 2.7 2.5 3c0 .3.3 1 .8 1.3.6.7.8.7 1.5 0s.7-1-.8-2.3c-.8-.8-1.5-1.7-1.5-2 0-.3-1.1-1.7-2.5-3a11.6 11.6 0 01-2.5-3c0-.3-1.1-1.7-2.5-3a11.5 11.5 0 01-2.5-3c0-.8-1.3-2-2.2-2-.4 0-.8.4-.8.9zm393.6-.2c-.3.4-.6 1-.6 1.3 0 .3-1.1 1.7-2.5 3a11.6 11.6 0 00-2.5 3c0 .3-1.4 1.9-3 3.5s-3 3.2-3 3.5c0 .4-.5 1-1 1.5-1 .9-1 1-.3 1.7 1 1 1.3 1 1.3 0a13 13 0 013-3.7c1.6-1.6 3-3.2 3-3.5 0-.3 1.1-1.7 2.5-3s2.5-2.7 2.5-3c0-.3.7-1.2 1.5-2s1.5-1.8 1.5-2.2c0-1-1.5-1-2.4 0zm-413.6 18c0 .5 3.7 4.5 8.3 9 7.3 7.4 8.3 8.3 9 7.6.7-.7-.2-1.7-7.5-9-7.8-7.8-9.8-9.3-9.8-7.5zm426.1 7.6c-7.3 7.3-8 8.3-7.4 9 .7.7 1.7-.2 9-7.5 4.6-4.6 8.3-8.6 8.3-9 0-2-2.3-.2-9.9 7.5zM404 443c0 .6.3 1 .8 1 .4 0 1.9 1.1 3.2 2.5 1.3 1.4 2.7 2.5 3 2.5.3 0 1.7 1.1 3 2.5s2.7 2.5 3 2.5c.3 0 1.5 1 2.5 2 1.8 1.9 2 2 2.8 1.3.7-.7.6-.9-.5-2-.7-.7-1.5-1.3-1.8-1.3-.3 0-1.7-1.1-3-2.5a11.6 11.6 0 00-3-2.5c-.3 0-1.9-1.4-3.5-3a13 13 0 00-3.7-3c-.4 0-.8-.2-.8-.5s-.4-.5-1-.5c-.7 0-1 .3-1 1zm469.5 0c-.4.6-1 1-1.4 1-.4 0-1.8 1.1-3.1 2.5a11.6 11.6 0 01-3 2.5c-.3 0-1.9 1.4-3.5 3s-3.2 3-3.5 3c-.3 0-1 .3-1.3.8-.7.6-.7.8 0 1.5s1 .7 2.3-.8c.8-.8 1.7-1.5 2-1.5.3 0 1.7-1.1 3-2.5s2.7-2.5 3-2.5c.3 0 1.7-1.1 3-2.5s2.7-2.5 3-2.5c.8 0 2-1.3 2-2.2 0-1.1-1.6-1-2.5.2zM387 463.3c0 .5 2.5 2.7 3 2.7.3 0 1.2.7 2 1.5s1.7 1.5 2 1.5c.5 0 1.1.4 1.5 1 .4.6 1 1 1.5 1 .4 0 1.1.4 1.5 1 .4.6 1 1 1.4 1 .4 0 1.3.7 2.1 1.5s1.7 1.5 2 1.5c.4 0 1 .5 1.5 1 .9 1 1 1 1.8.3.7-.7.7-.9 0-1.6-.4-.4-1-.7-1.3-.7-.3 0-1.2-.7-2-1.5s-1.7-1.5-2-1.5c-.5 0-1.1-.4-1.5-1-.4-.6-1-1-1.5-1-.4 0-1.1-.4-1.5-1-.4-.6-1-1-1.4-1-.4 0-1.3-.7-2.1-1.5s-1.7-1.5-2-1.5c-.5 0-1.1-.4-1.5-1-.6-.9-3.5-1.5-3.5-.7zm502.5.7c-.4.6-1 1-1.4 1-.4 0-1.3.7-2.1 1.5s-1.7 1.5-2 1.5c-.5 0-1.1.4-1.5 1-.4.6-1 1-1.4 1-.4 0-1.3.7-2.1 1.5s-1.7 1.5-2 1.5c-.5 0-1.1.4-1.5 1-.4.6-1 1-1.4 1-.4 0-1 .3-1.4.8-.7.6-.7.8 0 1.5.8.7 1 .7 1.8-.2.5-.6 1.1-1.1 1.5-1.1.3 0 1.2-.7 2-1.5s1.7-1.5 2-1.5c.5 0 1.1-.4 1.5-1 .4-.6 1-1 1.5-1 .4 0 1.1-.4 1.5-1 .4-.6 1-1 1.5-1 .4 0 1.1-.4 1.5-1 .4-.6 1-1 1.4-1 .9 0 3.1-2.3 3.1-3.2 0-1.1-1.6-1-2.5.2zM373 485.8c0 1 1.2 2.2 2.1 2.2.4 0 1 .4 1.4 1 .4.6 1.1 1 1.6 1s.9.2.9.5.4.5 1 .5 1 .2 1 .5.4.5.9.5 1.2.4 1.6 1c.4.6 1.1 1 1.6 1s.9.2.9.5.4.5 1 .5 1 .2 1 .5.4.5.9.5 1.2.4 1.6 1c.6.9 3.5 1.5 3.5.7 0-.6-2.5-2.7-3.2-2.7-.5 0-.8-.2-.8-.5s-.4-.5-.9-.5-1.2-.4-1.6-1c-.4-.6-1.1-1-1.6-1s-.9-.2-.9-.5-.4-.5-1-.5-1-.2-1-.5-.4-.5-.9-.5-1.2-.4-1.6-1c-.4-.6-1.1-1-1.6-1s-.9-.2-.9-.5-.4-.5-.9-.5-1.2-.4-1.6-1c-.9-1.2-2.5-1.3-2.5-.2zm531.5.2c-.4.6-1.1 1-1.6 1s-.9.2-.9.5-.4.5-.9.5-1.2.4-1.6 1c-.4.6-1.1 1-1.6 1s-.9.2-.9.5-.5.5-1 .5-1 .2-1 .5-.4.5-.9.5-1.2.4-1.6 1c-.4.6-1.1 1-1.6 1s-.9.2-.9.5-.3.5-.8.5c-.4 0-1.3.6-2 1.2-1.2 1.3-1.6 2.8-.7 2.8.3 0 .5-.2.5-.5s.4-.5.9-.5 1.2-.4 1.6-1c.4-.6 1.1-1 1.6-1s.9-.2.9-.5.5-.5 1-.5 1-.2 1-.5.4-.5.9-.5 1.2-.4 1.6-1c.4-.6 1.1-1 1.6-1s.9-.2.9-.5.5-.5 1-.5 1-.2 1-.5.4-.5.9-.5 1.2-.4 1.6-1c.4-.6 1-1 1.4-1 .4 0 1-.3 1.4-.8.7-.6.7-.8 0-1.4-1-1-1-1-1.8.2zm-543.9 23.7c-.8 1-.8 1.3.4 1.3.6 0 1 .2 1 .5s.4.5 1 .5 1 .2 1 .5.4.5 1 .5 1 .2 1 .5.7.5 1.5.5 1.5.2 1.5.5.4.5 1 .5 1 .2 1 .5.4.5 1 .5 1 .2 1 .5.4.5 1 .5 1 .2 1 .5.4.5 1 .5 1 .2 1 .5.4.5 1 .5 1 .2 1 .5.4.5 1 .5c.5 0 1 .3 1.1.6.2.5.5.4 1.1-.2.8-.8.8-1 .1-1.6-.4-.5-1-.8-1.5-.8-.4 0-.8-.2-.8-.5s-.7-.5-1.5-.5-1.5-.2-1.5-.5-.4-.5-1-.5-1-.2-1-.5-.4-.5-1-.5-1-.2-1-.5-.4-.5-1-.5-1-.2-1-.5-.4-.5-1-.5-1-.2-1-.5-.4-.5-1-.5-1-.2-1-.5-.4-.5-1-.5-1-.2-1-.5-.4-.5-1-.5-1-.2-1-.5c0-.7-1.7-.6-2.4.2zm556.4-.2c0 .3-.5.5-1 .5s-1 .2-1 .5-.5.5-1 .5-1 .2-1 .5-.5.5-1 .5-1 .2-1 .5-.5.5-1 .5-1 .2-1 .5-.5.5-1 .5-1 .2-1 .5-.7.5-1.5.5-1.5.2-1.5.5-.5.5-1 .5-1 .2-1 .5-.5.5-1 .5-1 .2-1 .5-.4.5-.8.5c-.7 0-2.2 1.1-2.2 1.7 0 .2.9.3 2 .3s2-.2 2-.5.5-.5 1-.5 1-.2 1-.5.5-.5 1-.5 1-.2 1-.5.5-.5 1-.5 1-.2 1-.5.5-.5 1-.5 1-.2 1-.5.5-.5 1-.5 1-.2 1-.5.5-.5 1-.5 1-.2 1-.5.7-.5 1.5-.5 1.5-.2 1.5-.5.4-.5.8-.5c1 0 2.2-1.2 2.2-2.2 0-.5-.4-.8-1-.8-.5 0-1 .2-1 .5zm-566.4 25.2c-.9 1.1-.8 1.3.9 1.3.8 0 1.5.2 1.5.5s.4.5 1 .5 1 .2 1 .5.7.5 1.5.5 1.5.2 1.5.5.7.5 1.5.5 1.5.2 1.5.5.7.5 1.5.5 1.5.2 1.5.5.7.5 1.5.5 1.5.2 1.5.5.4.5 1 .5 1 .2 1 .5.9.5 2 .5 2-.1 2-.3c0-.7-1.6-1.7-2.7-1.7-.7 0-1.3-.2-1.3-.5s-.4-.5-1-.5-1-.2-1-.5-.7-.5-1.5-.5-1.5-.2-1.5-.5-.7-.5-1.5-.5-1.5-.2-1.5-.5-.4-.5-1-.5-1-.2-1-.5-.7-.5-1.5-.5-1.5-.2-1.5-.5-.7-.5-1.5-.5-1.5-.2-1.5-.5c0-.7-1.7-.6-2.4.2zm576.4-.2c0 .3-.7.5-1.5.5s-1.5.2-1.5.5-.7.5-1.5.5-1.5.2-1.5.5-.5.5-1 .5-1 .2-1 .5-.7.5-1.5.5-1.5.2-1.5.5-.7.5-1.5.5-1.5.2-1.5.5-.7.5-1.5.5-1.5.2-1.5.5-.4.5-.8.5c-.7 0-2.2 1.1-2.2 1.7 0 .2.9.3 2 .3s2-.2 2-.5.5-.5 1-.5 1-.2 1-.5.7-.5 1.5-.5 1.5-.2 1.5-.5.7-.5 1.5-.5 1.5-.2 1.5-.5.7-.5 1.5-.5 1.5-.2 1.5-.5.5-.5 1-.5 1-.2 1-.5.7-.5 1.5-.5 1.5-.2 1.5-.5.7-.5 1.5-.5c1.7 0 1.8-.2.8-1.3-.8-.8-2.3-1-2.3-.2zm-584.4 25.3c-1 1 .4 2.2 2.6 2.2 1 0 1.8.2 1.8.5s.9.5 2 .5 2 .2 2 .5.7.5 1.5.5 1.5.2 1.5.5.9.5 2 .5 2 .2 2 .5.9.5 2 .5 2 .2 2 .5.9.5 2 .5 2-.1 2-.3c0-.7-1.6-1.7-2.7-1.7-.7 0-1.3-.2-1.3-.5s-.9-.5-2-.5-2-.2-2-.5-.7-.5-1.5-.5-1.5-.2-1.5-.5-.9-.5-2-.5-2-.2-2-.5-.9-.5-2-.5-2-.2-2-.5-.7-.5-1.5-.5-1.5-.2-1.5-.5c0-.7-.6-.6-1.4.3zm593.4-.3c0 .3-.7.5-1.5.5s-1.5.2-1.5.5-.9.5-2 .5-2 .2-2 .5-.9.5-2 .5-2 .2-2 .5-.7.5-1.5.5-1.5.2-1.5.5-.9.5-2 .5-2 .2-2 .5-.6.5-1.3.5c-1.1 0-2.7 1-2.7 1.7 0 .2.9.3 2 .3s2-.2 2-.5.9-.5 2-.5 2-.2 2-.5.7-.5 1.5-.5 1.5-.2 1.5-.5.9-.5 2-.5 2-.2 2-.5.9-.5 2-.5 2-.2 2-.5.8-.5 1.8-.5 2.1-.3 2.5-.8c.7-.6.7-.8 0-1.5-.8-.8-1.3-1-1.3-.2zM337 587c0 .9.3 1 2.5 1 1.4 0 2.5.2 2.5.5s1.3.5 3 .5 3 .2 3 .5 1.3.5 3 .5 3 .2 3 .5 1.3.5 3 .5c1.6 0 3-.1 3-.3 0-1-1.7-1.7-3.7-1.7-1.3 0-2.3-.2-2.3-.5s-1.3-.5-3-.5-3-.2-3-.5-1.3-.5-3-.5-3-.2-3-.5-1.1-.5-2.5-.5c-2.2 0-2.5.1-2.5 1zm601-.5c0 .3-1.3.5-3 .5s-3 .2-3 .5-1.3.5-3 .5-3 .2-3 .5-1 .5-2.3.5c-2 0-3.7.8-3.7 1.7 0 .2 1.4.3 3 .3 1.7 0 3-.2 3-.5s1.3-.5 3-.5 3-.2 3-.5 1.3-.5 3-.5 3-.2 3-.5 1.1-.5 2.5-.5c2.2 0 2.5-.1 2.5-1s-.3-1-2.5-1c-1.4 0-2.5.2-2.5.5zM333 613c0 .9.3 1 2.5 1 1.4 0 2.5.2 2.5.5s2.3.5 6 .5 6 .2 6 .5 1.5.5 3.5.5c3.2 0 3.5-.1 3.5-1 0-1-.3-1-4.5-1-2.7 0-4.5-.2-4.5-.5s-2.2-.5-5.5-.5-5.5-.2-5.5-.5-.9-.5-2-.5c-1.7 0-2 .2-2 1zm610-.5c0 .3-2.2.5-5.5.5s-5.5.2-5.5.5-1.8.5-4.5.5c-4.2 0-4.5 0-4.5 1s.3 1 4 1c2.3 0 4-.2 4-.5s2.3-.5 6-.5 6-.2 6-.5.9-.5 2-.5c1.7 0 2-.2 2-1s-.3-1-2-1c-1.1 0-2 .2-2 .5zM332 640c0 1 .3 1 12 1s12 0 12-1-.3-1-12-1-12 0-12 1zm592 0c0 1 .3 1 12 1s12 0 12-1-.3-1-12-1-12 0-12 1zm-575 24.5c0 .3-2.3.5-6 .5s-6 .2-6 .5-.9.5-2 .5c-1.7 0-2 .2-2 1s.3 1 2 1c1.1 0 2-.2 2-.5s2.2-.5 5.5-.5 5.5-.2 5.5-.5 1.8-.5 4.5-.5c4.2 0 4.5 0 4.5-1s-.3-1-4-1c-2.3 0-4 .2-4 .5zm574 .5c0 1 .3 1 4.5 1 2.7 0 4.5.2 4.5.5s2.2.5 5.5.5 5.5.2 5.5.5.9.5 2 .5c1.7 0 2-.2 2-1 0-.9-.3-1-2.5-1-1.4 0-2.5-.2-2.5-.5s-2.3-.5-6-.5-6-.2-6-.5-1.5-.5-3.5-.5c-3.2 0-3.5.1-3.5 1zm-569 24.5c0 .3-1.3.5-3 .5s-3 .2-3 .5-1.3.5-3 .5-3 .2-3 .5-1.1.5-2.5.5c-2.2 0-2.5.1-2.5 1s.3 1 2.5 1c1.4 0 2.5-.2 2.5-.5s1.3-.5 3-.5 3-.2 3-.5 1.3-.5 3-.5 3-.2 3-.5 1-.5 2.3-.5c2 0 3.7-.8 3.7-1.7 0-.2-1.4-.3-3-.3-1.7 0-3 .2-3 .5zm566-.2c0 1 1.7 1.7 3.7 1.7 1.3 0 2.3.2 2.3.5s1.3.5 3 .5 3 .2 3 .5 1.3.5 3 .5 3 .2 3 .5 1.1.5 2.5.5c2.2 0 2.5-.1 2.5-1s-.3-1-2.5-1c-1.4 0-2.5-.2-2.5-.5s-1.3-.5-3-.5-3-.2-3-.5-1.3-.5-3-.5-3-.2-3-.5-1.3-.5-3-.5c-1.6 0-3 .1-3 .3zm-558 24.2c0 .3-.9.5-2 .5s-2 .2-2 .5-.9.5-2 .5-2 .2-2 .5-.7.5-1.5.5-1.5.2-1.5.5-.9.5-2 .5-2 .2-2 .5-.8.5-1.8.5c-1.6 0-3.2.9-3.2 1.7 0 .2 1.1.3 2.5.3s2.5-.2 2.5-.5.9-.5 2-.5 2-.2 2-.5.9-.5 2-.5 2-.2 2-.5.7-.5 1.5-.5 1.5-.2 1.5-.5.9-.5 2-.5 2-.2 2-.5.6-.5 1.3-.5c1.1 0 2.7-1 2.7-1.7 0-.2-.9-.3-2-.3s-2 .2-2 .5zm552-.2c0 .7 1.6 1.7 2.7 1.7.7 0 1.3.2 1.3.5s.9.5 2 .5 2 .2 2 .5.7.5 1.5.5 1.5.2 1.5.5.9.5 2 .5 2 .2 2 .5.9.5 2 .5 2 .2 2 .5.7.5 1.5.5 1.5.3 1.6.6c.2.5.5.4 1.1-.2.8-.8.8-1 .1-1.6-.4-.5-1.5-.8-2.5-.8s-1.8-.2-1.8-.5-.9-.5-2-.5-2-.2-2-.5-.7-.5-1.5-.5-1.5-.2-1.5-.5-.9-.5-2-.5-2-.2-2-.5-.9-.5-2-.5-2-.2-2-.5-.9-.5-2-.5-2 .1-2 .3zm-545 24.2c0 .3-.7.5-1.5.5s-1.5.2-1.5.5-.4.5-1 .5-1 .2-1 .5-.7.5-1.5.5-1.5.2-1.5.5-.7.5-1.5.5-1.5.2-1.5.5-.7.5-1.5.5-1.5.2-1.5.5-.4.5-1 .5-1 .2-1 .5-.7.5-1.5.5c-1.7 0-1.8.2-.8 1.3.8.8 2.3 1 2.3.2 0-.3.7-.5 1.5-.5s1.5-.2 1.5-.5.4-.5 1-.5 1-.2 1-.5.7-.5 1.5-.5 1.5-.2 1.5-.5.7-.5 1.5-.5 1.5-.2 1.5-.5.7-.5 1.5-.5 1.5-.2 1.5-.5.4-.5 1-.5 1-.2 1-.5.6-.5 1.3-.5c1.1 0 2.7-1 2.7-1.7 0-.2-.9-.3-2-.3s-2 .2-2 .5zm538-.2c0 .7 1.6 1.7 2.7 1.7.7 0 1.3.2 1.3.5s.5.5 1 .5 1 .2 1 .5.7.5 1.5.5 1.5.2 1.5.5.7.5 1.5.5 1.5.2 1.5.5.5.5 1 .5 1 .2 1 .5.7.5 1.5.5 1.5.2 1.5.5.7.5 1.5.5 1.5.2 1.5.5c0 .7 1.5.6 2.3-.2 1-1 .9-1.3-.8-1.3-.8 0-1.5-.2-1.5-.5s-.5-.5-1-.5-1-.2-1-.5-.7-.5-1.5-.5-1.5-.2-1.5-.5-.7-.5-1.5-.5-1.5-.2-1.5-.5-.7-.5-1.5-.5-1.5-.2-1.5-.5-.7-.5-1.5-.5-1.5-.2-1.5-.5-.5-.5-1-.5-1-.2-1-.5-.9-.5-2-.5-2 .1-2 .3zm-526 22.2c0 .3-.4.5-1 .5s-1 .2-1 .5-.4.5-1 .5-1 .2-1 .5-.4.5-1 .5-1 .2-1 .5-.4.5-1 .5-1 .2-1 .5-.7.5-1.5.5-1.5.2-1.5.5-.4.5-1 .5-1 .2-1 .5-.4.5-1 .5-1 .2-1 .5-.4.5-1 .5-1 .2-1 .5-.4.5-.8.5-1 .3-1.5.7c-.8.8-1 2.3-.2 2.3.3 0 .5-.2.5-.5s.7-.5 1.5-.5 1.5-.2 1.5-.5.4-.5 1-.5 1-.2 1-.5.4-.5 1-.5 1-.2 1-.5.4-.5 1-.5 1-.2 1-.5.4-.5 1-.5 1-.2 1-.5.4-.5 1-.5 1-.2 1-.5.4-.5 1-.5 1-.2 1-.5.4-.5 1-.5 1-.2 1-.5.6-.5 1.3-.5c.7 0 1.6-.3 2-.8.7-.6.7-.8 0-1.5-.9-.8-1.3-1-1.3-.2zm516.6.3c-.5.6-.5.8 0 1.5.5.4 1.2.7 1.6.7.4 0 .8.2.8.5s.7.5 1.5.5 1.5.2 1.5.5.5.5 1 .5 1 .2 1 .5.5.5 1 .5 1 .2 1 .5.5.5 1 .5 1 .2 1 .5.5.5 1 .5 1 .2 1 .5.5.5 1 .5 1 .2 1 .5.5.5 1 .5 1 .2 1 .5.5.5 1 .5 1 .2 1 .5c0 .7 1.5.6 2.3-.2 1-1 .9-1.3-.3-1.3-.5 0-1-.2-1-.5s-.5-.5-1-.5-1-.2-1-.5-.5-.5-1-.5-1-.2-1-.5-.5-.5-1-.5-1-.2-1-.5-.7-.5-1.5-.5-1.5-.2-1.5-.5-.5-.5-1-.5-1-.2-1-.5-.5-.5-1-.5-1-.2-1-.5-.5-.5-1-.5-1-.2-1-.5-.5-.5-1-.5-1-.2-1-.5-.5-.5-1-.5-1-.2-1-.5c0-.7-.6-.6-1.4.3zM393 781.5c0 .3-.4.5-1 .5s-1 .2-1 .5-.4.5-.9.5-1.2.5-1.6 1c-.4.5-1.1 1-1.6 1s-.9.2-.9.5-.4.5-1 .5-1 .2-1 .5-.4.5-.9.5-1.2.5-1.6 1c-.4.5-1.1 1-1.6 1s-.9.2-.9.5-.4.5-1 .5-1 .2-1 .5-.3.5-.8.5c-.7 0-3.2 2.1-3.2 2.7 0 .2.7.3 1.5.3s1.5-.2 1.5-.5.4-.5 1-.5 1-.2 1-.5.4-.5.9-.5 1.2-.5 1.6-1c.4-.5 1.1-1 1.6-1s.9-.2.9-.5.4-.5.9-.5 1.2-.5 1.6-1c.4-.5 1.1-1 1.6-1s.9-.2.9-.5.4-.5 1-.5 1-.2 1-.5.3-.5.8-.5c.4 0 1.3-.6 2-1.2 1.2-1.3 1.6-2.8.7-2.8-.3 0-.5.2-.5.5zm493 .3c0 1 2.2 3.2 3.2 3.2.5 0 .8.2.8.5s.5.5 1 .5 1 .2 1 .5.4.5.9.5 1.2.5 1.6 1c.4.5 1.1 1 1.6 1s.9.2.9.5.4.5.9.5 1.2.5 1.6 1c.4.5 1.1 1 1.6 1s.9.2.9.5.5.5 1 .5 1 .2 1 .5.7.5 1.5.5 1.5-.1 1.5-.3c0-.6-2.5-2.7-3.2-2.7-.5 0-.8-.2-.8-.5s-.5-.5-1-.5-1-.2-1-.5-.4-.5-.9-.5-1.2-.5-1.6-1c-.4-.5-1.1-1-1.6-1s-.9-.2-.9-.5-.5-.5-1-.5-1-.2-1-.5-.4-.5-.9-.5-1.2-.5-1.6-1c-.4-.5-1.1-1-1.6-1s-.9-.2-.9-.5-.5-.5-1-.5-1-.2-1-.5-.2-.5-.5-.5-.5.3-.5.8zM405.5 803c-.4.5-1 1-1.5 1-.4 0-1.1.5-1.5 1-.4.5-1 1-1.4 1-.4 0-1.3.7-2.1 1.5s-1.7 1.5-2 1.5c-.5 0-1.1.5-1.5 1-.4.5-1 1-1.5 1-.4 0-1.1.5-1.5 1-.4.5-1 1-1.4 1-.9 0-3.1 2.3-3.1 3.2 0 1.1 1.6 1 2.5-.2.4-.5 1-1 1.4-1 .4 0 1.3-.7 2.1-1.5s1.7-1.5 2-1.5c.5 0 1.1-.5 1.5-1 .4-.5 1-1 1.4-1 .4 0 1.3-.7 2.1-1.5s1.7-1.5 2-1.5c.5 0 1.1-.5 1.5-1 .4-.5 1-1 1.4-1 .4 0 1-.3 1.4-.8.7-.6.7-.8 0-1.5-1-.9-1-.9-1.8.3zm467.1-.2c-.5.6-.5.8 0 1.5.5.4 1.1.7 1.5.7.4 0 1 .5 1.4 1 .4.5 1 1 1.4 1 .4 0 1.3.7 2.1 1.5s1.7 1.5 2 1.5c.5 0 1.1.5 1.5 1 .4.5 1 1 1.5 1 .4 0 1.1.5 1.5 1 .4.5 1 1 1.4 1 .4 0 1.3.7 2.1 1.5 1.6 1.7 2.2 1.8 3.3.8 1-1 .9-1.3-.2-1.3-.5 0-1.2-.5-1.6-1-.4-.5-1-1-1.5-1-.4 0-1.1-.5-1.5-1-.4-.5-1-1-1.5-1-.4 0-1.1-.5-1.5-1-.4-.5-1-1-1.4-1-.4 0-1.3-.7-2.1-1.5s-1.7-1.5-2-1.5c-.5 0-1.1-.5-1.5-1-.4-.5-1-1-1.5-1-.4 0-1.1-.5-1.5-1-.9-1.2-1-1.2-1.9-.2zM420 823.5c-.7.8-1.5 1.5-2 1.5a11 11 0 00-3 2.5 11.6 11.6 0 01-3 2.5c-.3 0-1.7 1.1-3 2.5a11.5 11.5 0 01-3 2.5c-.8 0-2 1.3-2 2.2 0 1.1 1.6 1 2.5-.2.4-.5 1-1 1.4-1 .4 0 2-1.4 3.6-3s3.2-3 3.5-3c.3 0 1.7-1.1 3-2.5s2.7-2.5 3-2.5c.3 0 1-.3 1.3-.8.7-.6.7-.8 0-1.5-1-.9-.8-1-2.3.8zm437.6-.8c-.8 1-.8 1.3.2 1.3a13 13 0 013.7 3c1.6 1.6 3.2 3 3.5 3 .3 0 1.7 1.1 3 2.5s2.7 2.5 3 2.5c.3 0 1.2.7 2 1.5 1.5 1.6 3 2 3 .7 0-.9-1.2-2.2-2-2.2-.3 0-1.9-1.4-3.5-3s-3.2-3-3.5-3c-.3 0-1.7-1.1-3-2.5a10.5 10.5 0 00-3.1-2.5c-.4 0-1-.5-1.4-1-.8-1.2-1-1.2-1.9-.3zm-427.5 25.6a75.4 75.4 0 00-8.1 9c0 1.7 2 .2 9.8-7.6 7.2-7.2 8.2-8.3 7.5-9l-.9-.7-8.3 8.3zm410.5-7.5c-.5.6.7 2 7.6 9 7.8 7.7 9.8 9.2 9.8 7.4 0-.5-16.1-17.3-16.6-17.2l-.8.8zm-385.5 17.5c-.6.6-1.1 1.4-1.1 1.7 0 .3-1.1 1.7-2.5 3a11.6 11.6 0 00-2.5 3c0 .3-1.4 1.9-3 3.5a13 13 0 00-3 3.7c0 .4-.2.8-.5.8s-.5.5-.5 1c0 .7.3 1 1 1 .6 0 1-.3 1-.8 0-.4 1.1-1.9 2.5-3.2 1.4-1.3 2.5-2.7 2.5-3 0-.3 1.1-1.7 2.5-3s2.5-2.7 2.5-3c0-.3 1-1.5 2-2.5 1.9-1.8 2-2 1.3-2.7-.9-1-.8-1-2.2.5zm367.5-.5c-.6.6-.4 1 .9 2.2.8.8 1.5 1.7 1.5 2 0 .3 1.1 1.7 2.5 3s2.5 2.7 2.5 3c0 .3 1.1 1.7 2.5 3s2.5 2.7 2.5 3c0 .8 1.3 2 2.2 2 1.1 0 1-1.6-.2-2.5-.5-.4-1-1-1-1.4 0-.4-1.1-1.8-2.5-3.1a11.6 11.6 0 01-2.5-3c0-.3-1.4-1.9-3-3.5s-3-3.2-3-3.5c0-.5-1.2-2-1.6-2l-.8.8zm-347 15c-.3.3-.6 1-.6 1.2 0 .3-.7 1.2-1.5 2s-1.5 1.7-1.5 2c0 .5-.4 1.1-1 1.5-.6.4-1 1-1 1.5 0 .4-.4 1.1-1 1.5-.6.4-1 1-1 1.4 0 .4-.7 1.3-1.5 2.1s-1.5 1.7-1.5 2c0 .5-.4 1.1-1 1.5-1.2.9-1.3 2.5-.2 2.5 1 0 2.2-1.2 2.2-2 0-.3.7-1.2 1.5-2s1.5-1.7 1.5-2c0-.5.4-1.1 1-1.5.6-.4 1-1 1-1.5 0-.4.4-1.1 1-1.5.6-.4 1-1 1-1.4 0-.4.7-1.3 1.5-2.1s1.5-1.7 1.5-2c0-.4.5-1 1-1.5 1-.9 1-1 .3-1.7-.9-1-.9-1-1.7 0zm327 0c-.6.6-.5.9.4 1.7.5.5 1 1.1 1 1.5 0 .3.7 1.2 1.5 2s1.5 1.7 1.5 2c0 .5.5 1.1 1 1.5.5.4 1 1 1 1.5 0 .4.5 1.1 1 1.5.5.4 1 1 1 1.5 0 .4.5 1.1 1 1.5.5.4 1 1 1 1.4 0 .9 2.3 3.1 3.2 3.1 1.1 0 1-1.6-.2-2.5-.5-.4-1-1-1-1.4 0-.4-.7-1.3-1.5-2.1s-1.5-1.7-1.5-2c0-.5-.5-1.1-1-1.5-.5-.4-1-1-1-1.4 0-.4-.7-1.3-1.5-2.1s-1.5-1.7-1.5-2c0-.5-.5-1.1-1-1.5-.5-.4-1-1-1-1.4 0-.6-1.2-2.1-1.6-2 0 0-.5.3-.8.7zM496 887.3c-.6.6-1.1 1.5-1.1 2 0 .4-.2.7-.5.7s-.5.4-.5.9-.4 1.2-1 1.6c-.6.4-1 1.1-1 1.6s-.2.9-.5.9-.5.5-.5 1-.2 1-.5 1-.5.4-.5.9-.4 1.2-1 1.6c-.6.4-1 1.1-1 1.6s-.2.9-.5.9-.5.4-.5.8c0 .5-.5 1.2-1 1.7-1 .9-1 1-.3 1.8.7.7.9.7 1.6 0 .4-.4.7-1 .7-1.4 0-.4.4-1 1-1.4.6-.4 1-1.1 1-1.6s.2-.9.5-.9.5-.5.5-1 .2-1 .5-1 .5-.4.5-.9.4-1.2 1-1.6c.6-.4 1-1.1 1-1.6s.2-.9.5-.9.5-.5.5-1 .2-1 .5-1 .5-.4.5-.9.4-1.2 1-1.6c.6-.4 1-1.3 1-2.1 0-1.7-.4-1.7-1.9-.1zm284.9-.8c0 .3.2.5.5.5s.5.4.5.9.5 1.2 1 1.6c.5.4 1 1.1 1 1.6s.2.9.5.9.5.5.5 1 .2 1 .5 1 .5.4.5.9.5 1.2 1 1.6c.5.4 1 1.1 1 1.6s.2.9.5.9.5.5.5 1 .2 1 .5 1 .5.4.5.9.5 1.2 1 1.6c.5.4 1 1 1 1.4 0 .7 1.2 2.1 1.7 2.1.2 0 .3-.7.3-1.5s-.2-1.5-.5-1.5-.5-.5-.5-1-.2-1-.5-1-.5-.4-.5-.9-.5-1.2-1-1.6c-.5-.4-1-1.1-1-1.6s-.2-.9-.5-.9-.5-.4-.5-.9-.5-1.2-1-1.6c-.5-.4-1-1.1-1-1.6s-.2-.9-.5-.9-.5-.5-.5-1-.2-1-.5-1-.5-.3-.5-.8c0-.4-.6-1.3-1.2-2-1.3-1.2-2.8-1.6-2.8-.7zm-262.4 11.2c-.3.4-.6 1.1-.6 1.5 0 .5-.2.8-.5.8s-.5.7-.5 1.5-.2 1.5-.5 1.5-.5.5-.5 1-.2 1-.5 1-.5.5-.5 1-.2 1-.5 1-.5.5-.5 1-.2 1-.5 1-.5.5-.5 1-.2 1-.5 1-.5.5-.5 1-.2 1-.5 1-.5.5-.5 1-.2 1-.5 1-.5.5-.5 1-.2 1-.5 1c-.7 0-.6 1.5.2 2.3 1 1 1.3.9 1.3-.3 0-.5.2-1 .5-1s.5-.5.5-1 .2-1 .5-1 .5-.5.5-1 .2-1 .5-1 .5-.7.5-1.5.2-1.5.5-1.5.5-.5.5-1 .2-1 .5-1 .5-.5.5-1 .2-1 .5-1 .5-.5.5-1 .2-1 .5-1 .5-.5.5-1 .2-1 .5-1 .5-.5.5-1 .2-1 .5-1 .5-.4.5-1c0-.5.3-1 .6-1.1.5-.2.4-.5-.2-1-1-1-1-1-1.8-.2zM760 899c0 1.1.2 2 .5 2s.5.5.5 1 .2 1 .5 1 .5.5.5 1 .2 1 .5 1 .5.5.5 1 .2 1 .5 1 .5.5.5 1 .2 1 .5 1 .5.5.5 1 .2 1 .5 1 .5.5.5 1 .2 1 .5 1 .5.7.5 1.5.2 1.5.5 1.5.5.4.5.8.3 1 .7 1.5c.8.8 2.3 1 2.3.2 0-.3-.2-.5-.5-.5s-.5-.7-.5-1.5-.2-1.5-.5-1.5-.5-.5-.5-1-.2-1-.5-1-.5-.5-.5-1-.2-1-.5-1-.5-.5-.5-1-.2-1-.5-1-.5-.5-.5-1-.2-1-.5-1-.5-.5-.5-1-.2-1-.5-1-.5-.5-.5-1-.2-1-.5-1-.5-.5-.5-1-.2-1-.5-1-.5-.6-.5-1.3c0-1.1-1-2.7-1.7-2.7-.2 0-.3.9-.3 2zm-218.4 8.7c-.3.4-.6 1.3-.6 2s-.2 1.3-.5 1.3-.5.5-.5 1-.2 1-.5 1-.5.7-.5 1.5-.2 1.5-.5 1.5-.5.7-.5 1.5-.2 1.5-.5 1.5-.5.5-.5 1-.2 1-.5 1-.5.7-.5 1.5-.2 1.5-.5 1.5-.5.7-.5 1.5-.2 1.5-.5 1.5c-.7 0-.6 1.5.2 2.3 1 1 1.3.9 1.3-.8 0-.8.2-1.5.5-1.5s.5-.5.5-1 .2-1 .5-1 .5-.7.5-1.5.2-1.5.5-1.5.5-.7.5-1.5.2-1.5.5-1.5.5-.7.5-1.5.2-1.5.5-1.5.5-.7.5-1.5.2-1.5.5-1.5.5-.5.5-1 .2-1 .5-1 .5-.7.5-1.5.2-1.5.5-1.5.5-.2.5-.5c0-.7-1.7-.6-2.4.2zM737 909c0 1.1.2 2 .5 2s.5.5.5 1 .2 1 .5 1 .5.7.5 1.5.2 1.5.5 1.5.5.7.5 1.5.2 1.5.5 1.5.5.7.5 1.5.2 1.5.5 1.5.5.5.5 1 .2 1 .5 1 .5.7.5 1.5.2 1.5.5 1.5.5.7.5 1.5c0 1.7.2 1.8 1.3.8.8-.8 1-2.3.2-2.3-.3 0-.5-.7-.5-1.5s-.2-1.5-.5-1.5-.5-.5-.5-1-.2-1-.5-1-.5-.7-.5-1.5-.2-1.5-.5-1.5-.5-.7-.5-1.5-.2-1.5-.5-1.5-.5-.7-.5-1.5-.2-1.5-.5-1.5-.5-.5-.5-1-.2-1-.5-1-.5-.6-.5-1.3c0-1.1-1-2.7-1.7-2.7-.2 0-.3.9-.3 2zm-171.4 5.7c-.3.4-.6 1.3-.6 2s-.2 1.3-.5 1.3-.5.9-.5 2-.2 2-.5 2-.5.7-.5 1.5-.2 1.5-.5 1.5-.5.9-.5 2-.2 2-.5 2-.5.9-.5 2-.2 2-.5 2-.5.7-.5 1.5-.3 1.5-.6 1.6c-.5.2-.4.5.2 1.1.8.8 1 .8 1.6.1.5-.4.8-1.5.8-2.5s.2-1.8.5-1.8.5-.9.5-2 .2-2 .5-2 .5-.7.5-1.5.2-1.5.5-1.5.5-.9.5-2 .2-2 .5-2 .5-.9.5-2 .2-2 .5-2 .5-.9.5-2c0-2.1-.3-2.4-1.4-1.3zM713 916c0 1.1.2 2 .5 2s.5.9.5 2 .2 2 .5 2 .5.7.5 1.5.2 1.5.5 1.5.5.9.5 2 .2 2 .5 2 .5.9.5 2 .2 2 .5 2 .5.8.5 1.8c0 1.6.9 3.2 1.7 3.2.2 0 .3-1.1.3-2.5s-.2-2.5-.5-2.5-.5-.9-.5-2-.2-2-.5-2-.5-.9-.5-2-.2-2-.5-2-.5-.7-.5-1.5-.2-1.5-.5-1.5-.5-.9-.5-2-.2-2-.5-2-.5-.9-.5-2c0-1.7-.2-2-1-2s-1 .3-1 2zm-123.4 4.7c-.3.4-.6 1.8-.6 3 0 1.3-.2 2.3-.5 2.3s-.5 1.3-.5 3-.2 3-.5 3-.5 1.3-.5 3-.2 3-.5 3-.5 1.1-.5 2.5c0 2.2.1 2.5 1 2.5s1-.3 1-2.5c0-1.4.2-2.5.5-2.5s.5-1.3.5-3 .2-3 .5-3 .5-1.3.5-3 .2-3 .5-3 .5-1.3.5-3c0-3-.3-3.5-1.4-2.3zM689 923c0 1.7.2 3 .5 3s.5 1.3.5 3 .2 3 .5 3 .5 1.3.5 3 .2 3 .5 3 .5 1.1.5 2.5c0 2.2.1 2.5 1 2.5s1-.3 1-2.5c0-1.4-.2-2.5-.5-2.5s-.5-1.3-.5-3-.2-3-.5-3-.5-1.3-.5-3-.2-3-.5-3-.5-1-.5-2.3c0-2-.8-3.7-1.7-3.7-.2 0-.3 1.4-.3 3zm-75 4.5c0 2.7-.2 4.5-.5 4.5s-.5 2.2-.5 5.5-.2 5.5-.5 5.5-.5.9-.5 2c0 1.7.2 2 1 2 .9 0 1-.3 1-2.5 0-1.4.2-2.5.5-2.5s.5-2.3.5-6 .2-6 .5-6 .5-1.5.5-3.5c0-3.2-.1-3.5-1-3.5-1 0-1 .3-1 4.5zm50-.5c0 2.3.2 4 .5 4s.5 2.3.5 6 .2 6 .5 6 .5.9.5 2c0 1.7.2 2 1 2s1-.3 1-2c0-1.1-.2-2-.5-2s-.5-2.2-.5-5.5-.2-5.5-.5-5.5-.5-1.8-.5-4.5c0-4.2 0-4.5-1-4.5s-1 .3-1 4zm-25 9c0 11.7 0 12 1 12s1-.3 1-12 0-12-1-12-1 .3-1 12z" fill="#3D3D3D"/>
  <g filter="url(#filter1_i)">
    <path d="M1076 468a68 68 0 100-136 68 68 0 000 136z" fill="url(#paint4_linear)"/>
  </g>
  <g filter="url(#filter2_i)">
    <path d="M204 948a68 68 0 100-136 68 68 0 000 136z" fill="url(#paint5_linear)"/>
  </g>
  <defs>
    <linearGradient id="paint0_linear" x1="1017" y1="0" x2="357" y2="1301" gradientUnits="userSpaceOnUse">
      <stop stop-color="#161618"/>
      <stop offset="1" stop-color="#080809"/>
    </linearGradient>
    <linearGradient id="paint1_linear" x1="640" y1="1040" x2="640" y2="1280" gradientUnits="userSpaceOnUse">
      <stop stop-opacity="0"/>
      <stop offset="1"/>
    </linearGradient>
    <linearGradient id="paint2_linear" x1="936" y1="344" x2="343.8" y2="935.8" gradientUnits="userSpaceOnUse">
      <stop stop-color="#3D3D3D" stop-opacity="0"/>
      <stop offset=".1" stop-color="#3D3D3D"/>
      <stop offset=".5" stop-color="#3D3D3D"/>
      <stop offset=".9" stop-color="#3D3D3D"/>
      <stop offset="1" stop-color="#3D3D3D" stop-opacity="0"/>
    </linearGradient>
    <linearGradient id="paint3_linear" x1="894" y1="386" x2="386" y2="894" gradientUnits="userSpaceOnUse">
      <stop stop-color="#0D0D0E"/>
      <stop offset="1" stop-color="#0E0E0F"/>
    </linearGradient>
    <linearGradient id="paint4_linear" x1="1144" y1="332" x2="1008" y2="468" gradientUnits="userSpaceOnUse">
      <stop stop-color="#131315"/>
      <stop offset="1" stop-color="#121214"/>
    </linearGradient>
    <linearGradient id="paint5_linear" x1="272" y1="812" x2="136" y2="948" gradientUnits="userSpaceOnUse">
      <stop stop-color="#0C0C0D"/>
      <stop offset="1" stop-color="#0A0A0A"/>
    </linearGradient>
    <filter id="filter0_i" x="386" y="386" width="524" height="524" filterUnits="userSpaceOnUse" color-interpolation-filters="sRGB">
      <feFlood flood-opacity="0" result="BackgroundImageFix"/>
      <feBlend in="SourceGraphic" in2="BackgroundImageFix" result="shape"/>
      <feColorMatrix in="SourceAlpha" values="0 0 0 0 0 0 0 0 0 0 0 0 0 0 0 0 0 0 127 0" result="hardAlpha"/>
      <feOffset dx="16" dy="16"/>
      <feGaussianBlur stdDeviation="16"/>
      <feComposite in2="hardAlpha" operator="arithmetic" k2="-1" k3="1"/>
      <feColorMatrix values="0 0 0 0 0 0 0 0 0 0 0 0 0 0 0 0 0 0 0.56 0"/>
      <feBlend in2="shape" result="effect1_innerShadow"/>
    </filter>
    <filter id="filter1_i" x="1008" y="332" width="152" height="152" filterUnits="userSpaceOnUse" color-interpolation-filters="sRGB">
      <feFlood flood-opacity="0" result="BackgroundImageFix"/>
      <feBlend in="SourceGraphic" in2="BackgroundImageFix" result="shape"/>
      <feColorMatrix in="SourceAlpha" values="0 0 0 0 0 0 0 0 0 0 0 0 0 0 0 0 0 0 127 0" result="hardAlpha"/>
      <feOffset dx="16" dy="16"/>
      <feGaussianBlur stdDeviation="16"/>
      <feComposite in2="hardAlpha" operator="arithmetic" k2="-1" k3="1"/>
      <feColorMatrix values="0 0 0 0 0 0 0 0 0 0 0 0 0 0 0 0 0 0 0.56 0"/>
      <feBlend in2="shape" result="effect1_innerShadow"/>
    </filter>
    <filter id="filter2_i" x="136" y="812" width="152" height="152" filterUnits="userSpaceOnUse" color-interpolation-filters="sRGB">
      <feFlood flood-opacity="0" result="BackgroundImageFix"/>
      <feBlend in="SourceGraphic" in2="BackgroundImageFix" result="shape"/>
      <feColorMatrix in="SourceAlpha" values="0 0 0 0 0 0 0 0 0 0 0 0 0 0 0 0 0 0 127 0" result="hardAlpha"/>
      <feOffset dx="16" dy="16"/>
      <feGaussianBlur stdDeviation="16"/>
      <feComposite in2="hardAlpha" operator="arithmetic" k2="-1" k3="1"/>
      <feColorMatrix values="0 0 0 0 0 0 0 0 0 0 0 0 0 0 0 0 0 0 0.56 0"/>
      <feBlend in2="shape" result="effect1_innerShadow"/>
    </filter>
  </defs>
</svg>
