<svg width="168" height="32" viewBox="0 0 168 32" fill="none" xmlns="http://www.w3.org/2000/svg">
<g id="logo_light_simple">
<g id="Vector">
<path fill-rule="evenodd" clip-rule="evenodd" d="M24 16C24 9.37258 18.6274 4 12 4C5.37258 4 0 9.37258 0 16C0 22.6274 5.37258 28 12 28C18.6274 28 24 22.6274 24 16ZM9.66375 21.952L10.5637 17.2424L11.8747 10.5284C12.0295 9.73573 11.4148 9 10.5977 9C9.97468 9 9.43916 9.43658 9.32084 10.041L9.08372 11.2522C8.94936 11.9385 8.34122 12.4343 7.63368 12.4343H7.17567C6.52636 12.4343 6 12.9544 6 13.5959V13.6843C6 14.277 6.48635 14.7576 7.08628 14.7576C7.76937 14.7576 8.28295 15.3731 8.15258 16.0357L8.08027 16.4031C7.98436 16.8905 7.55232 17.2424 7.04978 17.2424C6.47001 17.2424 6 17.7068 6 18.2796V18.9083C6 19.2713 6.29786 19.5656 6.66526 19.5656C7.08183 19.5656 7.39591 19.9396 7.31911 20.3441L7.10422 21.4761C6.95391 22.268 7.56873 23 8.38414 23C9.01017 23 9.54761 22.5598 9.66375 21.952ZM12.927 17.2424L14.3332 10.0411C14.4512 9.43669 14.9866 9 15.6096 9C16.4266 9 17.041 9.73581 16.8859 10.5283L16.6675 11.6438C16.5872 12.0537 16.9051 12.4343 17.3276 12.4343C17.699 12.4343 18 12.7318 18 13.0987V13.7093C18 14.2882 17.525 14.7576 16.9391 14.7576C16.4312 14.7576 15.9945 15.1132 15.8976 15.6058L15.8292 15.9534C15.6977 16.6216 16.2156 17.2424 16.9045 17.2424C17.5096 17.2424 18 17.727 18 18.3248V18.404C18 19.0456 17.4736 19.5656 16.8244 19.5656H16.353C15.6423 19.5656 15.0324 20.0657 14.9014 20.7559L14.6744 21.9518C14.559 22.5596 14.0219 23 13.396 23C12.581 23 11.9667 22.2678 12.118 21.4764L12.927 17.2424Z" fill="white"/>
<path d="M41.2514 21.8396H38.5965V16.8422H34.664V21.8396H32V10.1604H34.664V14.885H38.5965V10.1604H41.2514V21.8396Z" fill="white"/>
<path d="M50.6018 19.4492H46.9683L46.2615 21.8396H43.4435L47.5663 10.1604H50.0038L54.1538 21.8396H51.3086L50.6018 19.4492ZM47.5482 17.484H50.0129L48.7805 13.3209L47.5482 17.484Z" fill="white"/>
<path d="M64.8815 17.9492C64.815 19.2807 64.3922 20.2888 63.6129 20.9733C62.8337 21.6578 61.7342 22 60.3147 22C58.8226 22 57.6779 21.5668 56.8805 20.7005C56.0891 19.8289 55.6935 18.5882 55.6935 16.9786V15.0134C55.6935 13.4091 56.1043 12.1738 56.9258 11.3075C57.7473 10.4358 58.889 10 60.3509 10C61.7886 10 62.879 10.3556 63.622 11.0668C64.371 11.7781 64.7969 12.7995 64.8996 14.131H62.2266C62.2024 13.3075 62.0574 12.7406 61.7916 12.4305C61.5319 12.115 61.0516 11.9572 60.3509 11.9572C59.6381 11.9572 59.1337 12.1791 58.8377 12.623C58.5417 13.0615 58.3846 13.7861 58.3665 14.7968V17.0027C58.3665 18.1631 58.5115 18.9599 58.8015 19.393C59.0975 19.8262 59.6019 20.0428 60.3147 20.0428C61.0154 20.0428 61.4987 19.893 61.7645 19.5936C62.0302 19.2888 62.1813 18.7406 62.2175 17.9492H64.8815Z" fill="white"/>
<path d="M70.9789 17.3316L69.9278 18.5027V21.8396H67.2638V10.1604H69.9278V15.254L70.7705 13.9947L73.2261 10.1604H76.4881L72.7096 15.2941L76.5515 21.8396H73.3892L70.9789 17.3316Z" fill="white"/>
<path d="M84.579 19.4492H80.9455L80.2387 21.8396H77.4207L81.5435 10.1604H83.981L88.131 21.8396H85.2858L84.579 19.4492ZM81.5254 17.484H83.99L82.7577 13.3209L81.5254 17.484Z" fill="white"/>
<path d="M97.572 12.1257H94.31V21.8396H91.6369V12.1257H88.4293V10.1604H97.572V12.1257Z" fill="white"/>
<path d="M109.097 21.8396H106.442V16.8422H102.51V21.8396H99.8456V10.1604H102.51V14.885H106.442V10.1604H109.097V21.8396Z" fill="white"/>
<path d="M121.275 17.0508C121.275 18.6176 120.855 19.8342 120.015 20.7005C119.181 21.5668 118.022 22 116.536 22C115.056 22 113.893 21.5722 113.047 20.7166C112.201 19.8556 111.772 18.6524 111.76 17.107V15.1096C111.76 13.5053 112.18 12.254 113.02 11.3556C113.859 10.4519 115.025 10 116.517 10C117.985 10 119.142 10.4439 119.988 11.3316C120.834 12.2139 121.262 13.4545 121.275 15.0535V17.0508ZM118.601 15.0936C118.601 14.0401 118.432 13.2567 118.094 12.7433C117.756 12.2299 117.23 11.9733 116.517 11.9733C115.811 11.9733 115.288 12.2219 114.95 12.7193C114.612 13.2112 114.436 13.9626 114.424 14.9733V17.0508C114.424 18.0722 114.596 18.8262 114.941 19.3128C115.285 19.7941 115.817 20.0348 116.536 20.0348C117.23 20.0348 117.747 19.7995 118.085 19.3289C118.423 18.8529 118.595 18.1176 118.601 17.123V15.0936Z" fill="white"/>
<path d="M133.153 21.8396H130.489L126.593 14.1791V21.8396H123.929V10.1604H126.593L130.498 17.8289V10.1604H133.153V21.8396Z" fill="white"/>
<path d="M145.285 21.8396H142.63V16.8422H138.698V21.8396H136.034V10.1604H138.698V14.885H142.63V10.1604H145.285V21.8396Z" fill="white"/>
<path d="M156.756 10.1604V18.246C156.744 19.4599 156.366 20.3904 155.623 21.0374C154.88 21.6791 153.814 22 152.425 22C151.011 22 149.93 21.6738 149.181 21.0214C148.438 20.369 148.066 19.4251 148.066 18.1898V10.1604H150.748V18.1979C150.748 18.861 150.869 19.3342 151.111 19.6176C151.352 19.9011 151.79 20.0428 152.425 20.0428C153.059 20.0428 153.494 19.9037 153.729 19.6257C153.965 19.3422 154.086 18.8797 154.092 18.238V10.1604H156.756Z" fill="white"/>
<path d="M159.519 21.8396V10.1604H163.596C164.974 10.1604 166.019 10.4332 166.731 10.9786C167.45 11.5187 167.81 12.3128 167.81 13.361C167.81 13.9545 167.662 14.4652 167.366 14.893C167.07 15.3209 166.665 15.6337 166.152 15.8316C166.744 15.9813 167.2 16.2834 167.52 16.738C167.84 17.1872 168 17.7433 168 18.4064C168 19.5401 167.647 20.3957 166.94 20.9733C166.239 21.5508 165.221 21.8396 163.886 21.8396H159.519ZM162.183 16.762V19.8824H163.886C164.363 19.8824 164.726 19.7513 164.974 19.4893C165.221 19.2273 165.345 18.8556 165.345 18.3743C165.345 17.3262 164.916 16.7888 164.058 16.762H162.183ZM162.183 15.0455H163.569C164.614 15.0455 165.137 14.5668 165.137 13.6096C165.137 13.0802 165.016 12.7005 164.774 12.4706C164.533 12.2406 164.14 12.1257 163.596 12.1257H162.183V15.0455Z" fill="white"/>
</g>
</g>
</svg>
