<svg width="168" height="22" viewBox="0 0 168 22" fill="none" xmlns="http://www.w3.org/2000/svg">
<path fill-rule="evenodd" clip-rule="evenodd" d="M24 11C24 5.20101 18.6274 0.5 12 0.5C5.37258 0.5 0 5.20101 0 11C0 16.799 5.37258 21.5 12 21.5C18.6274 21.5 24 16.799 24 11ZM9.66375 16.208L10.5637 12.0871L11.8747 6.21235C12.0295 5.51876 11.4148 4.875 10.5977 4.875C9.97468 4.875 9.43916 5.25701 9.32084 5.78588L9.08372 6.84567C8.94936 7.44619 8.34122 7.88001 7.63368 7.88001H7.17567C6.52636 7.88001 6 8.3351 6 8.89641V8.97376C6 9.49238 6.48635 9.9129 7.08628 9.9129C7.76937 9.9129 8.28295 10.4515 8.15258 11.0312L8.08027 11.3527C7.98436 11.7792 7.55232 12.0871 7.04978 12.0871C6.47001 12.0871 6 12.4935 6 12.9946V13.5448C6 13.8624 6.29786 14.1199 6.66526 14.1199C7.08183 14.1199 7.39591 14.4472 7.31911 14.8011L7.10422 15.7916C6.95391 16.4845 7.56873 17.125 8.38414 17.125C9.01017 17.125 9.54761 16.7398 9.66375 16.208ZM12.927 12.0871L14.3332 5.78596C14.4512 5.2571 14.9866 4.875 15.6096 4.875C16.4266 4.875 17.041 5.51883 16.8859 6.21226L16.6675 7.18832C16.5872 7.54699 16.9051 7.88001 17.3276 7.88001C17.699 7.88001 18 8.14032 18 8.46136V8.99564C18 9.50218 17.525 9.9129 16.9391 9.9129C16.4312 9.9129 15.9945 10.224 15.8976 10.6551L15.8292 10.9592C15.6977 11.5439 16.2156 12.0871 16.9045 12.0871C17.5096 12.0871 18 12.5111 18 13.0342V13.1035C18 13.6649 17.4736 14.1199 16.8244 14.1199H16.353C15.6423 14.1199 15.0324 14.5575 14.9014 15.1614L14.6744 16.2078C14.559 16.7396 14.0219 17.125 13.396 17.125C12.581 17.125 11.9667 16.4843 12.118 15.7919L12.927 12.0871Z" fill="white"/>
<path d="M41.2514 16.1097H38.5965V11.737H34.664V16.1097H32V5.89038H34.664V10.0244H38.5965V5.89038H41.2514V16.1097Z" fill="white"/>
<path d="M50.6018 14.0181H46.9683L46.2615 16.1097H43.4435L47.5663 5.89038H50.0038L54.1538 16.1097H51.3086L50.6018 14.0181ZM47.5482 12.2985H50.0129L48.7805 8.65582L47.5482 12.2985Z" fill="white"/>
<path d="M64.8815 12.7055C64.815 13.8706 64.3922 14.7527 63.6129 15.3516C62.8337 15.9506 61.7342 16.25 60.3147 16.25C58.8226 16.25 57.6779 15.871 56.8805 15.1129C56.0891 14.3503 55.6935 13.2647 55.6935 11.8563V10.1367C55.6935 8.73296 56.1043 7.65207 56.9258 6.89406C57.7473 6.13132 58.889 5.75 60.3509 5.75C61.7886 5.75 62.879 6.06115 63.622 6.68345C64.371 7.30584 64.7969 8.19956 64.8996 9.36462H62.2266C62.2024 8.64406 62.0574 8.14803 61.7916 7.87669C61.5319 7.60063 61.0516 7.46255 60.3509 7.46255C59.6381 7.46255 59.1337 7.65671 58.8377 8.04513C58.5417 8.42881 58.3846 9.06284 58.3665 9.9472V11.8774C58.3665 12.8927 58.5115 13.5899 58.8015 13.9689C59.0975 14.3479 59.6019 14.5375 60.3147 14.5375C61.0154 14.5375 61.4987 14.4064 61.7645 14.1444C62.0302 13.8777 62.1813 13.398 62.2175 12.7055H64.8815Z" fill="white"/>
<path d="M70.9789 12.1652L69.9278 13.1899V16.1097H67.2638V5.89038H69.9278V10.3473L70.7705 9.24539L73.2261 5.89038H76.4881L72.7096 10.3824L76.5515 16.1097H73.3892L70.9789 12.1652Z" fill="white"/>
<path d="M84.579 14.0181H80.9455L80.2387 16.1097H77.4207L81.5435 5.89038H83.981L88.131 16.1097H85.2858L84.579 14.0181ZM81.5254 12.2985H83.99L82.7577 8.65582L81.5254 12.2985Z" fill="white"/>
<path d="M97.572 7.61002H94.31V16.1097H91.6369V7.61002H88.4293V5.89038H97.572V7.61002Z" fill="white"/>
<path d="M109.097 16.1097H106.442V11.737H102.51V16.1097H99.8456V5.89038H102.51V10.0244H106.442V5.89038H109.097V16.1097Z" fill="white"/>
<path d="M121.275 11.9195C121.275 13.2904 120.855 14.3549 120.015 15.1129C119.181 15.871 118.022 16.25 116.536 16.25C115.056 16.25 113.893 15.8757 113.047 15.127C112.201 14.3737 111.772 13.3209 111.76 11.9686V10.2209C111.76 8.81714 112.18 7.72225 113.02 6.93615C113.859 6.14541 115.025 5.75 116.517 5.75C117.985 5.75 119.142 6.13841 119.988 6.91515C120.834 7.68716 121.262 8.77269 121.275 10.1718V11.9195ZM118.601 10.2069C118.601 9.28509 118.432 8.59961 118.094 8.15039C117.756 7.70116 117.23 7.47664 116.517 7.47664C115.811 7.47664 115.288 7.69416 114.95 8.12939C114.612 8.5598 114.436 9.21727 114.424 10.1016V11.9195C114.424 12.8132 114.596 13.4729 114.941 13.8987C115.285 14.3198 115.817 14.5304 116.536 14.5304C117.23 14.5304 117.747 14.3246 118.085 13.9128C118.423 13.4963 118.595 12.8529 118.601 11.9826V10.2069Z" fill="white"/>
<path d="M133.153 16.1097H130.489L126.593 9.40674V16.1097H123.929V5.89038H126.593L130.498 12.6003V5.89038H133.153V16.1097Z" fill="white"/>
<path d="M145.285 16.1097H142.63V11.737H138.698V16.1097H136.034V5.89038H138.698V10.0244H142.63V5.89038H145.285V16.1097Z" fill="white"/>
<path d="M156.756 5.89038V12.9653C156.744 14.0274 156.366 14.8416 155.623 15.4078C154.88 15.9692 153.814 16.25 152.425 16.25C151.011 16.25 149.93 15.9646 149.181 15.3938C148.438 14.8229 148.066 13.997 148.066 12.9161V5.89038H150.748V12.9232C150.748 13.5034 150.869 13.9175 151.111 14.1654C151.352 14.4135 151.79 14.5375 152.425 14.5375C153.059 14.5375 153.494 14.4158 153.729 14.1725C153.965 13.9245 154.086 13.5198 154.092 12.9583V5.89038H156.756Z" fill="white"/>
<path d="M159.519 16.1097V5.89038H163.596C164.974 5.89038 166.019 6.12908 166.731 6.6063C167.45 7.07889 167.81 7.77373 167.81 8.6909C167.81 9.21022 167.662 9.65708 167.366 10.0314C167.07 10.4058 166.665 10.6795 166.152 10.8527C166.744 10.9837 167.2 11.248 167.52 11.6458C167.84 12.0388 168 12.5254 168 13.1056C168 14.0976 167.647 14.8463 166.94 15.3517C166.239 15.857 165.221 16.1097 163.886 16.1097H159.519ZM162.183 11.6668V14.3971H163.886C164.363 14.3971 164.726 14.2824 164.974 14.0532C165.221 13.8239 165.345 13.4987 165.345 13.0775C165.345 12.1605 164.916 11.6902 164.058 11.6668H162.183ZM162.183 10.1648H163.569C164.614 10.1648 165.137 9.74598 165.137 8.90843C165.137 8.4452 165.016 8.11297 164.774 7.91181C164.533 7.71056 164.14 7.61002 163.596 7.61002H162.183V10.1648Z" fill="white"/>
</svg>
