<svg width="24" height="24" fill="none" xmlns="http://www.w3.org/2000/svg">
  <path fill-rule="evenodd" clip-rule="evenodd" d="M24 12a12 12 0 10-24 0 12 12 0 0024 0zM9.7 18l.9-4.8 1.3-6.7c.1-.8-.5-1.5-1.3-1.5-.6 0-1.2.4-1.3 1l-.2 1.3c-.2.6-.8 1.1-1.5 1.1h-.4C6.5 8.4 6 9 6 9.6c0 .7.5 1.2 1 1.2A1 1 0 018.3 12l-.1.4a1 1 0 01-1 .8 1 1 0 00-1.1 1v.7c0 .4.3.7.7.7.4 0 .7.3.6.7l-.2 1.2c-.1.8.5 1.5 1.3 1.5.6 0 1.1-.4 1.3-1zm3.2-4.8L14.3 6c.2-.6.7-1 1.3-1 .8 0 1.4.7 1.3 1.5l-.2 1.1c-.1.5.2.8.6.8.4 0 .7.3.7.7v.6c0 .6-.5 1-1 1a1 1 0 00-1.1 1v.3a1 1 0 001 1.2 1 1 0 011.1 1.1v.1c0 .6-.5 1.2-1.2 1.2h-.4c-.8 0-1.4.5-1.5 1.2l-.2 1.2c-.1.6-.7 1-1.3 1-.8 0-1.4-.7-1.3-1.5l.8-4.3z" fill="#fff"/>
</svg>
